<?xml version="1.0" encoding="UTF-8"?>
<svg width="26px" height="26px" viewBox="0 0 26 26" version="1.1" xmlns="http://www.w3.org/2000/svg" xmlns:xlink="http://www.w3.org/1999/xlink">
    <!-- Generator: Sketch 50.2 (55047) - http://www.bohemiancoding.com/sketch -->
    <title>icons8-cancel (1)</title>
    <desc>Created with Sketch.</desc>
    <defs></defs>
    <g id="Page-1" stroke="none" stroke-width="1" fill="none" fill-rule="evenodd">
        <g id="icons8-cancel-(1)">
            <rect id="Rectangle" fill="#FFFFFF" x="5" y="6" width="16" height="14"></rect>
            <path d="M13,0.1875 C5.925781,0.1875 0.1875,5.925781 0.1875,13 C0.1875,20.074219 5.925781,25.8125 13,25.8125 C20.074219,25.8125 25.8125,20.074219 25.8125,13 C25.8125,5.925781 20.074219,0.1875 13,0.1875 Z M18.78125,17.394531 L17.390625,18.78125 C17.136719,19.035156 16.722656,19.035156 16.46875,18.78125 L13,15.3125 L9.53125,18.78125 C9.277344,19.035156 8.863281,19.035156 8.609375,18.777344 L7.21875,17.394531 C6.96875,17.136719 6.96875,16.726563 7.21875,16.46875 L10.6875,13 L7.222656,9.535156 C6.96875,9.277344 6.96875,8.863281 7.222656,8.609375 L8.609375,7.222656 C8.863281,6.964844 9.28125,6.964844 9.535156,7.222656 L13,10.6875 L16.46875,7.222656 C16.722656,6.964844 17.140625,6.964844 17.390625,7.222656 L18.78125,8.605469 C19.035156,8.863281 19.035156,9.277344 18.78125,9.535156 L15.3125,13 L18.78125,16.46875 C19.03125,16.726563 19.03125,17.136719 18.78125,17.394531 Z" id="Shape" fill="#EC492E" fill-rule="nonzero"></path>
        </g>
    </g>
</svg>