<?xml version="1.0" encoding="UTF-8"?>
<svg width="582px" height="582px" viewBox="0 0 582 582" version="1.1" xmlns="http://www.w3.org/2000/svg" xmlns:xlink="http://www.w3.org/1999/xlink">
    <!-- Generator: Sketch 50.2 (55047) - http://www.bohemiancoding.com/sketch -->
    <title>samsung_mask</title>
    <desc>Created with Sketch.</desc>
    <defs></defs>
    <g id="Page-1" stroke="none" stroke-width="1" fill="none" fill-rule="evenodd">
        <g id="samsung_mask">
            <path d="M291,579 C417.2,579 487.3563,579 533.1782,533.1782 C579,487.3563 579,417.2 579,291 C579,164.8 579,94.6437 533.1782,48.8218 C487.3563,3 417.2,3 291,3 C164.8,3 94.6437,3 48.8218,48.8218 C3,94.6437 3,164.8 3,291 C3,417.2 3,487.3563 48.8218,533.1782 C94.6437,579 164.8,579 291,579 Z" id="Shape" stroke="#000000" stroke-width="4.04" fill="#FFFFFF"></path>
            <path d="M291,581.02 C245.405785,581.02 227.364945,580.905374 206.305002,580.303209 C179.26606,579.530088 157.937938,577.9794 139.475902,575.270881 C98.2598921,569.224185 69.763898,556.976961 47.3934427,534.606554 C25.0230394,512.236102 12.7758146,483.740108 6.72911858,442.524098 C4.02060021,424.062062 2.46991211,402.73394 1.69679085,375.694998 C1.09462639,354.635055 0.98,336.594215 0.98,291 C0.98,245.405785 1.09462639,227.364945 1.69679085,206.305002 C2.46991211,179.26606 4.02060021,157.937938 6.72911858,139.475902 C12.7758146,98.2598921 25.0230394,69.763898 47.3934459,47.3934427 C69.763898,25.0230394 98.2598921,12.7758146 139.475902,6.72911858 C157.937938,4.02060021 179.26606,2.46991211 206.305002,1.69679085 C227.364945,1.09462639 245.405785,0.98 291,0.98 C336.594215,0.98 354.635055,1.09462639 375.694998,1.69679085 C402.73394,2.46991211 424.062062,4.02060021 442.524098,6.72911858 C483.740108,12.7758146 512.236102,25.0230394 534.606557,47.3934459 C556.976961,69.763898 569.224185,98.2598921 575.270881,139.475902 C577.9794,157.937938 579.530088,179.26606 580.303209,206.305002 C580.905374,227.364945 581.02,245.405785 581.02,291 C581.02,336.594215 580.905374,354.635055 580.303209,375.694998 C579.530088,402.73394 577.9794,424.062062 575.270881,442.524098 C569.224185,483.740108 556.976961,512.236102 534.606554,534.606557 C512.236102,556.976961 483.740108,569.224185 442.524098,575.270881 C424.062062,577.9794 402.73394,579.530088 375.694998,580.303209 C354.635055,580.905374 336.594215,581.02 291,581.02 Z M291,576.98 C336.553054,576.98 354.572571,576.865509 375.57953,576.26486 C402.47396,575.49587 423.654968,573.955878 441.937677,571.273669 C482.359226,565.343526 510.062744,553.436897 531.749843,531.749846 C553.436897,510.062744 565.343526,482.359226 571.273669,441.937677 C573.955878,423.654968 575.49587,402.47396 576.26486,375.57953 C576.865509,354.572571 576.98,336.553054 576.98,291 C576.98,245.446946 576.865509,227.427429 576.26486,206.42047 C575.49587,179.52604 573.955878,158.345032 571.273669,140.062323 C565.343526,99.6407744 553.436897,71.9372562 531.749846,50.2501573 C510.062744,28.5631025 482.359226,16.656474 441.937677,10.7263314 C423.654968,8.04412163 402.47396,6.50412966 375.57953,5.7351404 C354.572571,5.13449091 336.553054,5.02 291,5.02 C245.446946,5.02 227.427429,5.13449091 206.42047,5.7351404 C179.52604,6.50412966 158.345032,8.04412163 140.062323,10.7263314 C99.6407744,16.656474 71.9372562,28.5631025 50.2501573,50.2501541 C28.5631025,71.9372562 16.656474,99.6407744 10.7263314,140.062323 C8.04412163,158.345032 6.50412966,179.52604 5.7351404,206.42047 C5.13449091,227.427429 5.02,245.446946 5.02,291 C5.02,336.553054 5.13449091,354.572571 5.7351404,375.57953 C6.50412966,402.47396 8.04412163,423.654968 10.7263314,441.937677 C16.656474,482.359226 28.5631025,510.062744 50.2501541,531.749843 C71.9372562,553.436897 99.6407744,565.343526 140.062323,571.273669 C158.345032,573.955878 179.52604,575.49587 206.42047,576.26486 C227.427429,576.865509 245.446946,576.98 291,576.98 Z" id="Shape" fill="#000000" fill-rule="nonzero"></path>
        </g>
    </g>
</svg>